<svg xmlns="http://www.w3.org/2000/svg" viewBox="0 0 960 400" width="960" height="400" role="img" aria-label="Output size comparison: repomix 22,085 KB, code2prompt 9,304 KB, data2prompt 241 KB. data2prompt is 80 to 85 percent more token-efficient."><title>Packed output size: same project, three tools</title><style>text{font-family:-apple-system,'Segoe UI',Roboto,'Helvetica Neue',Arial,sans-serif;}</style><rect x="0.5" y="0.5" width="959" height="399" rx="10" fill="#ffffff" stroke="#e2e5ea"/><text x="40" y="52" font-size="19" font-weight="600" fill="#1f2430">Packed output size &#8212; same project, three tools</text><text x="40" y="78" font-size="13.5" fill="#667085">a data-heavy analytics project, packed with each tool&#8217;s default settings &#183; lower is better</text><line x1="190.0" y1="114.0" x2="190.0" y2="286.0" stroke="#d5d9df" stroke-width="1"/><text x="190.0" y="306.0" font-size="11.5" fill="#667085" text-anchor="middle">0</text><line x1="362.5" y1="114.0" x2="362.5" y2="286.0" stroke="#eef0f3" stroke-width="1"/><text x="362.5" y="306.0" font-size="11.5" fill="#667085" text-anchor="middle">6,000</text><line x1="535.0" y1="114.0" x2="535.0" y2="286.0" stroke="#eef0f3" stroke-width="1"/><text x="535.0" y="306.0" font-size="11.5" fill="#667085" text-anchor="middle">12,000</text><line x1="707.5" y1="114.0" x2="707.5" y2="286.0" stroke="#eef0f3" stroke-width="1"/><text x="707.5" y="306.0" font-size="11.5" fill="#667085" text-anchor="middle">18,000</text><line x1="880.0" y1="114.0" x2="880.0" y2="286.0" stroke="#eef0f3" stroke-width="1"/><text x="880.0" y="306.0" font-size="11.5" fill="#667085" text-anchor="middle">24,000</text><text x="535.0" y="330.0" font-size="12" fill="#667085" text-anchor="middle">output size (KB)</text><text x="176.0" y="147.5" font-size="14" font-weight="400" fill="#1f2430" text-anchor="end">repomix</text><path d="M 190.0 128.0 h 630.9 q 4.0 0 4.0 4.0 v 22.0 q 0 4.0 -4.0 4.0 h -630.9 Z" fill="#7f8894"/><text x="834.9" y="147.5" font-size="13.5" font-weight="600" fill="#1f2430">22,085 KB</text><text x="176.0" y="205.5" font-size="14" font-weight="400" fill="#1f2430" text-anchor="end">code2prompt</text><path d="M 190.0 186.0 h 263.5 q 4.0 0 4.0 4.0 v 22.0 q 0 4.0 -4.0 4.0 h -263.5 Z" fill="#7f8894"/><text x="467.5" y="205.5" font-size="13.5" font-weight="600" fill="#1f2430">9,304 KB</text><text x="176.0" y="263.5" font-size="14" font-weight="600" fill="#1f2430" text-anchor="end">data2prompt</text><path d="M 190.0 244.0 h 3.5 q 3.5 0 3.5 3.5 v 23.1 q 0 3.5 -3.5 3.5 h -3.5 Z" fill="#2a78d6"/><text x="206.9" y="263.5" font-size="13.5" font-weight="600" fill="#1f2430">241 KB</text><text x="282.9" y="263.5" font-size="12.5" fill="#667085">&#8212;&#160; 80&#8211;85% more token-efficient, with schema, column stats and row samples intact</text></svg>